<svg xmlns="http://www.w3.org/2000/svg" viewBox="0 0 90 92.24"><defs><style>.a{fill:gray;}.b{fill:#7f0000;}</style></defs><title>logo</title><rect class="a" x="18.79" y="14.44" width="52.41" height="16.4"/><rect class="a" x="16.54" y="37.71" width="56.92" height="23.21"/><rect class="a" x="31.26" y="59.44" width="26.7" height="23.06"/><path d="M13.6,0L11.92,5.75a55.74,55.74,0,0,0-1.82,10A33.14,33.14,0,0,0,12.34,31c-4.19,4.81-7.57,9.25-7.57,9.25L0,47.52l6-.28a20.44,20.44,0,0,0-1.12,2.38L2.66,56.21l6.87-.84H9.81A9.1,9.1,0,0,0,9,57.76L8.55,63.5l5.75-1c0.38,0,1,.18,1.68.28a31,31,0,0,1,4.77,1,15.7,15.7,0,0,1,4.07,2,4.08,4.08,0,0,1,1.12,1C27,72.83,27.81,79,29.3,83.41c1.18,3.55,4,5.57,6.87,6.87a20.85,20.85,0,0,0,17.66,0c2.82-1.3,5.69-3.33,6.87-6.87C62.18,79,63,72.82,64.07,66.73a4.05,4.05,0,0,1,1.12-1,15.7,15.7,0,0,1,4.07-2,31,31,0,0,1,4.77-1c0.68-.1,1.3-0.25,1.68-0.28l5.75,1L81,57.76a9.1,9.1,0,0,0-.84-2.38h0.28l6.45,0.7-1.68-6.31a14.2,14.2,0,0,0-1.12-2.52L90,47.52l-4.77-7.29S81.87,35.68,77.8,31a33.22,33.22,0,0,0,2.1-15.28,55.69,55.69,0,0,0-1.82-10L76.4,0l-5,3.22-13.74,9a41.54,41.54,0,0,0-25.23,0l-13.74-9Zm5.75,14.44,0.56,0.28c4,3.66,8.58,10,1.26,15.14L21,29.58C19,26.4,18.51,21,18.93,16.4A16,16,0,0,1,19.35,14.44Zm51.31,0.14a10.49,10.49,0,0,1,.42,1.82C71.49,21,71,26.41,69,29.58l-0.7,1.26C59.33,27.32,66.09,19,70.65,14.58ZM29.44,37.71c5.89,0.13,11.07,3.35,11.07,14.16h9c0-16.63,12.51-14.95,20.61-12.2l2.94,5s0.33,0.81.42,1l-9.81-1,5.61,8s0.65,0.91,1.12,1.68a34.64,34.64,0,0,0-3.79.84A24.24,24.24,0,0,0,60,58.46a10.66,10.66,0,0,0-4.77,6.73c-1.11,6.25-2.13,12.56-3.08,15.42a1.57,1.57,0,0,1-.42.56V78.64a21.86,21.86,0,0,0-6.73-1,21.86,21.86,0,0,0-6.73,1v2.52a1.64,1.64,0,0,1-.42-0.56c-1-2.86-2-9.17-3.08-15.42A10.66,10.66,0,0,0,30,58.46a24.22,24.22,0,0,0-6.59-3.22,34.58,34.58,0,0,0-3.79-.84c0.47-.78,1.12-1.68,1.12-1.68l5.61-8-9.81,1,0.56-1.12,2.8-4.91A28.28,28.28,0,0,1,29.44,37.71Zm0.42,13s2.91,7.63,7.57,11.78c0,0,1.7-7.11.14-8.83S29.86,50.75,29.86,50.75Zm30.28,0s-6.3,1.22-7.85,2.94,0.28,8.83.28,8.83C57.23,58.38,60.14,50.75,60.14,50.75Z"/><path class="b" d="M32.82,53.58A16.34,16.34,0,0,0,36.32,59s0.79-3.3.06-4.09S32.82,53.58,32.82,53.58Z"/><path class="b" d="M57,53.58s-2.92.56-3.64,1.36S53.53,59,53.53,59A16.34,16.34,0,0,0,57,53.58Z"/></svg>