<?xml version="1.0" standalone="no"?>
<!DOCTYPE svg PUBLIC "-//W3C//DTD SVG 20010904//EN"
 "http://www.w3.org/TR/2001/REC-SVG-20010904/DTD/svg10.dtd">
<svg version="1.0" xmlns="http://www.w3.org/2000/svg"
 width="250.000000pt" height="250.000000pt" viewBox="0 0 250.000000 250.000000"
 preserveAspectRatio="xMidYMid meet">
<metadata>
Created by potrace 1.13, written by Peter Selinger 2001-2015
</metadata>
<g transform="translate(0.000000,250.000000) scale(0.100000,-0.100000)"
fill="#000000" stroke="none">
<path d="M405 2468 c-17 -50 -56 -200 -69 -265 -34 -182 -29 -329 15 -480 l21
-71 -92 -113 c-85 -104 -230 -309 -230 -325 0 -4 34 -4 76 0 71 7 76 6 71 -11
-3 -10 -19 -54 -35 -98 -52 -141 -53 -129 9 -121 30 3 73 9 96 12 l41 6 -13
-38 c-8 -22 -14 -71 -15 -110 l0 -71 77 13 c69 12 86 12 168 -5 90 -18 180
-56 204 -84 6 -9 23 -82 37 -164 51 -302 78 -369 178 -438 175 -120 434 -121
611 0 102 70 127 130 180 435 15 85 31 160 36 166 22 27 118 67 202 85 90 18
125 18 233 -6 20 -4 21 -2 17 73 -3 42 -9 90 -15 105 -6 15 -8 30 -6 33 3 3
41 0 84 -5 43 -5 80 -8 82 -6 6 6 -48 199 -58 209 -22 22 -6 27 65 20 41 -4
75 -4 75 0 0 16 -157 242 -234 336 -56 68 -84 110 -80 120 48 116 64 303 40
466 -16 108 -69 321 -84 336 -4 4 -119 -65 -255 -153 l-247 -161 -92 23 c-133
33 -363 33 -496 0 l-93 -23 -212 139 c-287 188 -286 187 -292 171z m280 -522
c42 -84 30 -160 -37 -224 l-35 -33 -21 48 c-38 89 -53 300 -25 346 9 15 87
-75 118 -137z m1262 -11 c-5 -102 -33 -211 -63 -250 -15 -20 -15 -20 -51 1
-105 61 -88 188 46 335 53 59 55 61 64 38 5 -13 7 -69 4 -124z m-984 -495 c92
-43 145 -137 162 -287 l7 -63 123 0 122 0 6 79 c8 127 59 214 152 264 54 29
217 31 317 3 l67 -18 41 -70 c22 -39 38 -73 35 -76 -3 -3 -58 0 -122 6 -64 6
-119 10 -121 7 -2 -2 34 -59 82 -127 72 -103 83 -124 68 -129 -9 -4 -44 -14
-77 -24 -117 -33 -242 -121 -281 -198 -8 -15 -29 -103 -45 -195 -17 -92 -38
-196 -47 -232 -16 -62 -17 -63 -22 -31 -7 45 -32 53 -180 53 -148 0 -173 -8
-180 -53 -6 -32 -7 -29 -22 36 -9 39 -29 138 -43 220 -17 96 -35 169 -52 203
-46 96 -179 179 -346 216 l-28 7 58 82 c31 45 71 101 87 124 16 24 27 45 25
48 -3 3 -60 -1 -127 -8 -67 -7 -122 -11 -122 -9 0 2 19 37 41 77 l42 73 71 20
c99 29 112 31 192 27 46 -2 87 -11 117 -25z"/>
<path d="M840 1125 c0 -4 22 -50 50 -103 54 -104 135 -215 154 -209 16 5 23
49 25 140 1 110 -10 119 -211 174 -10 2 -18 1 -18 -2z"/>
<path d="M1567 1106 c-44 -13 -91 -32 -105 -43 -26 -19 -27 -25 -27 -109 0
-99 10 -147 28 -142 42 14 226 320 190 317 -4 0 -43 -11 -86 -23z"/>
</g>
</svg>
