<svg xmlns="http://www.w3.org/2000/svg" viewBox="0 0 90 100"><defs><style>.a{fill:#ff9800;}.b{fill:#fff;}.c{fill:#bdc3c7;}.d{fill:#a1a6a9;}.e{opacity:0.15;isolation:isolate;}.f{fill:#27ae60;}</style></defs><title>clipboard</title><path class="a" d="M95,94c0,3.31-2.42,6-5.4,6H10.4c-3,0-5.4-2.69-5.4-6V16c0-3.31,2.42-6,5.4-6H89.6c3,0,5.4,2.69,5.4,6V94Z" transform="translate(-5)"/><path class="b" d="M82,87a2,2,0,0,1-2,2H20a2,2,0,0,1-2-2V18a2,2,0,0,1,2-2H80a2,2,0,0,1,2,2V87Z" transform="translate(-5)"/><path class="c" d="M72,20H28a3,3,0,0,1-3-3V10a3,3,0,0,1,3-3H43A7,7,0,0,1,57,7H72a3,3,0,0,1,3,3v7A3,3,0,0,1,72,20ZM50,4a3,3,0,1,0,3,3A3,3,0,0,0,50,4Z" transform="translate(-5)"/><path class="d" d="M72,20H28a3,3,0,0,1-3-3V15a3,3,0,0,0,3,3H72a3,3,0,0,0,3-3v2A3,3,0,0,1,72,20Z" transform="translate(-5)"/><path class="e" d="M89.6,97H10.4c-3,0-5.4-2.69-5.4-6v3c0,3.31,2.42,6,5.4,6H89.6c3,0,5.4-2.69,5.4-6V91C95,94.31,92.58,97,89.6,97Z" transform="translate(-5)"/><path class="c" d="M41,41v3H72V41H41Zm0,14H72V52H41v3Zm0,11H72V63H41v3Zm0,11H72V74H41v3ZM28,46h7V39H28v7Zm0,11h7V50H28v7Zm0,11h7V61H28v7Zm0,11h7V72H28v7Z" transform="translate(-5)"/><path class="f" d="M41,29v3H72V29H41Zm-5.07-1.21-0.71-.71a0.25,0.25,0,0,0-.35,0l-3.73,3.7a0.25,0.25,0,0,1-.35,0l-1.63-1.66a0.25,0.25,0,0,0-.35,0l-0.72.65a0.25,0.25,0,0,0-.07.17V30h0v1h0l0.06,0.13,1.65,1.73,0.35,0.35,0.71,0.71a0.25,0.25,0,0,0,.35,0l4.79-4.77L36,29h0V28h0A0.25,0.25,0,0,0,35.93,27.79Z" transform="translate(-5)"/><path class="d" d="M50,4a3,3,0,0,1,2.82,2A3,3,0,0,0,53,5a3,3,0,0,0-6,0,3,3,0,0,0,.18,1A3,3,0,0,1,50,4Z" transform="translate(-5)"/></svg>